Coordinates
version=1
nRows=24
nColumns=24
inDegrees=yes

Units are S.I. units (second, meters, Newtons, ...)
Angles are in degrees.

endheader
time	pelvis_tilt	pelvis_list	pelvis_rotation	pelvis_tx	pelvis_ty	pelvis_tz	hip_flexion_r	hip_adduction_r	hip_rotation_r	knee_angle_r	ankle_angle_r	subtalar_angle_r	mtp_angle_r	hip_flexion_l	hip_adduction_l	hip_rotation_l	knee_angle_l	ankle_angle_l	subtalar_angle_l	mtp_angle_l	lumbar_extension	lumbar_bending	lumbar_rotation
      3.70000000	     -1.69594306	     -3.73221658	     14.96779635	     -1.99733561	     -0.04426587	      0.42444628	     30.92118650	     -0.86097893	     -8.47776742	    -13.34608428	      2.15649777	     12.30941341	      4.53902931	    -15.05019554	     -3.18295081	     13.95548894	    -18.86079390	      8.61812877	     32.06003693	     18.86623738	     -2.38297686	      2.71747425	    -19.70520885
      3.70500000	     -1.80786311	     -3.85323188	     15.01680182	     -1.98840214	     -0.04552742	      0.42468055	     31.17609307	     -0.74813448	     -8.91688715	    -14.19811278	      1.87607897	     12.56799950	      5.19278697	    -14.92484570	     -3.51364091	     13.32076730	    -19.71406680	      7.98734856	     33.37135299	     19.35933270	     -2.15706967	      2.85048659	    -19.69278157
      3.71000000	     -1.94141600	     -3.98814874	     15.06746782	     -1.97939803	     -0.04677451	      0.42491969	     31.44176825	     -0.62326190	     -9.30086333	    -15.07197911	      1.45121937	     12.73036522	      5.88861914	    -14.72054179	     -3.86547164	     12.65355607	    -20.63879448	      7.24793296	     34.73814247	     19.89913393	     -1.89791782	      2.99471517	    -19.68092573
      3.71500000	     -2.09000005	     -4.12936726	     15.12091590	     -1.97035435	     -0.04798419	      0.42517404	     31.70926996	     -0.48882320	     -9.60147145	    -15.95450205	      0.88164035	     12.78080886	      6.61487931	    -14.44083405	     -4.23380317	     11.96649359	    -21.63439208	      6.38067209	     36.15685041	     20.48981296	     -1.61925962	      3.14201452	    -19.67091423
      3.72000000	     -2.25401167	     -4.28670423	     15.18935856	     -1.96129407	     -0.04915257	      0.42542496	     31.98478796	     -0.34096998	     -9.82178343	    -16.84522783	      0.17689551	     12.70462154	      7.33841078	    -14.07471022	     -4.63268513	     11.25288859	    -22.70364448	      5.38458553	     37.61831837	     21.14241322	     -1.31789330	      3.30934172	    -19.65847863
      3.72500000	     -2.42530479	     -4.43094661	     15.18491409	     -1.95220641	     -0.05020923	      0.42574296	     32.22648299	     -0.12971923	     -9.73965693	    -17.57926322	     -1.16571148	     11.99698165	      9.11531852	    -13.70829853	     -4.98524803	     10.63461273	    -23.68518853	      3.91072043	     38.79150618	     22.43498529	     -1.02092047	      3.46757649	    -19.57910704
      3.73000000	     -2.60167684	     -4.67163246	     15.26089720	     -1.94307572	     -0.05126992	      0.42599976	     32.52200506	      0.10218309	     -9.94142517	    -18.50091805	     -1.96116220	     11.82225171	      9.53484687	    -13.18778286	     -5.48463961	      9.93539646	    -24.90491409	      2.65944929	     40.21039891	     23.00482974	     -0.67728581	      3.72312854	    -19.54572588
      3.73500000	     -2.79679362	     -4.90137836	     15.33043468	     -1.93401252	     -0.05227558	      0.42633936	     32.83492362	      0.35450961	     -9.94506740	    -19.41817938	     -2.85919980	     11.38585885	      9.90582281	    -12.58348152	     -5.97724473	      9.26922544	    -26.16951462	      1.18054684	     41.59463034	     23.74823328	     -0.33420684	      3.95586875	    -19.52247010
      3.74000000	     -2.98156819	     -5.12186605	     15.38100130	     -1.92511425	     -0.05319791	      0.42671582	     33.14214029	      0.63846374	     -9.75050412	    -20.32165024	     -3.90433670	     10.70754532	     10.32051250	    -11.93019481	     -6.44670376	      8.67656323	    -27.45905967	     -0.57106213	     42.79940975	     24.78922892	     -0.04392039	      4.19241196	    -19.48070663
      3.74500000	     -3.15873701	     -5.37236085	     15.45821466	     -1.91616393	     -0.05405421	      0.42708724	     33.44856101	      0.94342476	     -9.61994503	    -21.25945543	     -4.78052393	     10.06132573	     10.55524371	    -11.22471982	     -6.95855856	      8.16689221	    -28.79037003	     -2.47793828	     43.95009583	     25.70041880	      0.26311105	      4.45275612	    -19.44970336
      3.75000000	     -3.32189878	     -5.70486821	     15.56666249	     -1.90722788	     -0.05488768	      0.42740878	     33.76749223	      1.29417949	     -9.65901639	    -22.24097704	     -5.42893508	      9.62711514	     10.54329913	    -10.43544852	     -7.56620827	      7.72424929	    -30.24333597	     -4.33122786	     45.09431588	     26.17875270	      0.57924273	      4.80624902	    -19.45368028
      3.75500000	     -3.49998455	     -5.95986957	     15.60334514	     -1.89849447	     -0.05566774	      0.42786476	     34.10507111	      1.67004574	     -9.31987754	    -23.23032104	     -6.16039011	      8.72485629	     10.44128589	     -9.61895691	     -8.04508881	      7.34013781	    -31.62839055	     -6.64928685	     45.85147221	     27.27804422	      0.84222737	      5.07846694	    -19.34482915
      3.76000000	     -3.67601597	     -6.34216157	     15.71143258	     -1.88966217	     -0.05644778	      0.42817108	     34.44813698	      2.09536670	     -9.29010551	    -24.22032719	     -6.58930738	      8.06707939	     10.24571300	     -8.69694059	     -8.65823398	      7.08303313	    -33.13982227	     -8.85195796	     46.54585157	     27.78891235	      1.17489679	      5.48250162	    -19.32116022
      3.76500000	     -3.83392801	     -6.69025235	     15.77359493	     -1.88103165	     -0.05718376	      0.42851421	     34.78934419	      2.53343269	     -9.14386754	    -25.24893693	     -6.92761986	      7.34502704	      9.90770128	     -7.75431430	     -9.20454203	      6.85871213	    -34.66945233	    -11.21742574	     46.95712786	     28.36090883	      1.43985248	      5.86774478	    -19.23787577
      3.77000000	     -3.96357150	     -7.11049972	     15.86166657	     -1.87234240	     -0.05784641	      0.42870326	     35.07243033	      3.02553030	     -9.09861427	    -26.21925188	     -7.06065387	      6.70353420	      9.57906799	     -6.78870155	     -9.78781536	      6.79978048	    -36.23885753	    -13.56898831	     47.08084811	     28.57213040	      1.72165743	      6.35082247	    -19.14885262
      3.77500000	     -4.10733438	     -7.46175014	     15.90174122	     -1.86383894	     -0.05857432	      0.42908922	     35.38138290	      3.49503158	     -9.00335618	    -27.23954763	     -6.97221401	      5.98617069	      9.10709214	     -5.76585324	    -10.29782145	      6.68711859	    -37.84163655	    -16.01028138	     47.09761910	     28.93819570	      1.95400019	      6.73253652	    -19.04825032
      3.78000000	     -4.19703846	     -7.86396851	     15.91269810	     -1.85533343	     -0.05920538	      0.42933999	     35.60665729	      4.02384741	     -8.97753104	    -28.21780041	     -6.64528829	      5.52157065	      8.50532824	     -4.77928658	    -10.82482118	      6.63564045	    -39.43446809	    -18.47759565	     46.79168104	     29.23138193	      2.15082257	      7.21241246	    -18.86763399
      3.78500000	     -4.23213784	     -8.26094947	     15.98234645	     -1.84699271	     -0.05971210	      0.42947638	     35.72237274	      4.53629222	     -9.00235289	    -29.08072493	     -6.33830495	      4.92535389	      8.19433927	     -3.77613847	    -11.31153063	      6.75933929	    -41.12142351	    -20.74105304	     46.21269931	     28.96365512	      2.27766845	      7.70323440	    -18.75237455
      3.79000000	     -4.32748744	     -8.65172671	     15.95947720	     -1.83866282	     -0.06031268	      0.42976877	     35.88652047	      5.07733592	     -9.02294522	    -29.93826225	     -5.80630356	      4.40604858	      7.73732187	     -2.69790433	    -11.77733400	      6.75946508	    -42.80589559	    -23.00910040	     45.45647322	     28.86790885	      2.45673402	      8.15686510	    -18.59819280
      3.79500000	     -4.37408240	     -9.07479435	     15.91178555	     -1.83034677	     -0.06081119	      0.42997257	     35.94281504	      5.66680850	     -9.07243067	    -30.70114911	     -5.07021489	      4.10814516	      7.20135278	     -1.65739434	    -12.24963220	      6.80082471	    -44.47877959	    -25.17364109	     44.45061562	     28.74667740	      2.59890455	      8.67679838	    -18.36284908
      3.80000000	     -4.26505539	     -9.53996154	     15.87742975	     -1.82214429	     -0.06107734	      0.43008559	     35.76527899	      6.32863722	     -9.20789386	    -31.26435353	     -4.49059196	      3.74735206	      7.16059709	     -0.73494699	    -12.78687593	      6.86437817	    -46.19722907	    -27.03394543	     43.27180559	     28.26413658	      2.57003591	      9.29988899	    -18.11900377
      3.80500000	     -4.21487179	     -9.98861447	     15.79801462	     -1.81399090	     -0.06134273	      0.43030240	     35.60895411	      6.99006009	     -9.30456443	    -31.77082825	     -3.84216977	      3.41903049	      7.08907231	      0.26181444	    -13.27616779	      6.91441117	    -47.90437729	    -28.78882256	     41.87498096	     27.85838962	      2.59671329	      9.86779548	    -17.85326728
      3.81000000	     -4.31747141	    -10.30210787	     15.64107062	     -1.80596794	     -0.06162933	      0.43056315	     35.55045377	      7.50846207	     -9.33106952	    -32.28374032	     -2.91372256	      3.30205756	      6.65385751	      1.38448983	    -13.52492071	      6.99622242	    -49.55969235	    -30.55690525	     40.21867568	     27.70001347	      2.72497523	     10.25510046	    -17.50628857
      3.81500000	     -4.22463217	    -10.74302031	     15.51704711	     -1.79801104	     -0.06165804	      0.43075147	     35.22691248	      8.19183781	     -9.43311897	    -32.57274816	     -2.16731479	      3.18921557	      6.52974313	      2.36318916	    -13.96570720	      7.08011996	    -51.24458862	    -31.88803100	     38.53308697	     27.38462982	      2.67569194	     10.83859379	    -17.15729402
